<svg width="99" height="75" viewBox="0 0 99 75" fill="none" xmlns="http://www.w3.org/2000/svg">
<path d="M15.4052 10.868H20.5952C21.9902 10.868 23.0402 9.36459 22.8152 7.69816L22.3652 4.45588C22.0052 1.88379 20.1602 0 18.0002 0C15.8402 0 13.9952 1.88379 13.6352 4.47399L13.1852 7.71628C12.9602 9.36459 14.0102 10.868 15.4052 10.868Z" fill="white"/>
<path d="M2.48979 9.2558C2.29479 9.72675 2.21979 10.2883 2.33979 10.8498C2.57979 12.0996 3.47979 12.7154 4.63479 12.6611C4.63479 12.6611 6.86979 12.6611 7.55979 12.6611C8.80479 12.6611 9.82479 11.6105 9.82479 10.3245C9.82479 10.0709 9.77979 9.83543 9.71979 9.59996C9.70479 9.54562 9.70479 9.50939 9.73479 9.45505C9.86979 9.16524 9.94479 8.8392 9.94479 8.49504C9.94479 7.93353 9.73479 7.40824 9.40479 7.00975C9.35979 6.95541 9.35979 6.90107 9.37479 6.82862C9.47979 6.46635 9.47979 6.04974 9.38979 5.65125C9.14979 4.87238 8.56479 4.34709 7.90479 4.31087C7.85979 4.31087 7.82979 4.29275 7.79979 4.25653C7.54479 3.87615 7.07979 3.62256 6.55479 3.62256C6.10479 3.62256 5.69979 3.80369 5.42979 4.09351C5.38479 4.14785 5.33979 4.14784 5.29479 4.12973C5.08479 4.02105 4.84479 3.96671 4.60479 3.96671C3.62979 3.96671 2.83479 4.85427 2.74479 5.99541C2.74479 6.03163 2.72979 6.06786 2.69979 6.10408C2.26479 6.57503 2.00979 7.28145 2.08479 8.00598C2.12979 8.40448 2.26479 8.78486 2.45979 9.09278C2.50479 9.12901 2.50479 9.20146 2.48979 9.2558Z" fill="white"/>
<path d="M24.36 13.8568C22.605 12.9149 20.445 12.2266 18 12.2266C15.555 12.2266 13.395 12.933 11.64 13.8568C10.02 14.7262 9 16.6824 9 18.8198V21.7361H27V18.8198C27 16.6824 25.98 14.7262 24.36 13.8568Z" fill="white"/>
<path d="M1.83 15.5418C0.72 16.1214 0 17.4256 0 18.8927V21.7365H6.75V18.8203C6.75 17.3169 7.095 15.9041 7.695 14.6723C7.14 14.5637 6.585 14.4912 6 14.4912C4.515 14.4912 3.105 14.8716 1.83 15.5418Z" fill="white"/>
<path d="M34.1697 15.5418C32.8947 14.8716 31.4847 14.4912 29.9997 14.4912C29.4147 14.4912 28.8597 14.5637 28.3047 14.6723C28.9047 15.9041 29.2497 17.3169 29.2497 18.8203V21.7365H35.9997V18.8927C35.9997 17.4256 35.2797 16.1214 34.1697 15.5418Z" fill="white"/>
<path d="M33.0003 9.05665V8.15099C33.0003 6.15852 31.6503 4.52832 30.0003 4.52832H27.0003C26.3703 4.52832 26.0253 5.39776 26.4153 5.9955L27.4653 7.13664C27.1803 7.69815 27.0003 8.35023 27.0003 9.05665C27.0003 11.0491 28.3503 12.6793 30.0003 12.6793C31.6503 12.6793 33.0003 11.0491 33.0003 9.05665Z" fill="white"/>
<path d="M78.4052 10.868H83.5952C84.9902 10.868 86.0402 9.36459 85.8152 7.69816L85.3652 4.45588C85.0052 1.88379 83.1602 0 81.0002 0C78.8402 0 76.9952 1.88379 76.6352 4.47399L76.1852 7.71628C75.9602 9.36459 77.0102 10.868 78.4052 10.868Z" fill="white"/>
<path d="M65.4898 9.2558C65.2948 9.72675 65.2198 10.2883 65.3398 10.8498C65.5798 12.0996 66.4798 12.7154 67.6348 12.6611C67.6348 12.6611 69.8698 12.6611 70.5598 12.6611C71.8048 12.6611 72.8248 11.6105 72.8248 10.3245C72.8248 10.0709 72.7798 9.83543 72.7198 9.59996C72.7048 9.54562 72.7048 9.50939 72.7348 9.45505C72.8698 9.16524 72.9448 8.8392 72.9448 8.49504C72.9448 7.93353 72.7348 7.40824 72.4048 7.00975C72.3598 6.95541 72.3598 6.90107 72.3748 6.82862C72.4798 6.46635 72.4798 6.04974 72.3898 5.65125C72.1498 4.87238 71.5648 4.34709 70.9048 4.31087C70.8598 4.31087 70.8298 4.29275 70.7998 4.25653C70.5448 3.87615 70.0798 3.62256 69.5548 3.62256C69.1048 3.62256 68.6998 3.80369 68.4298 4.09351C68.3848 4.14785 68.3398 4.14784 68.2948 4.12973C68.0848 4.02105 67.8448 3.96671 67.6048 3.96671C66.6298 3.96671 65.8348 4.85427 65.7448 5.99541C65.7448 6.03163 65.7298 6.06786 65.6998 6.10408C65.2648 6.57503 65.0098 7.28145 65.0848 8.00598C65.1298 8.40448 65.2648 8.78486 65.4598 9.09278C65.5048 9.12901 65.5048 9.20146 65.4898 9.2558Z" fill="white"/>
<path d="M87.36 13.8568C85.605 12.9149 83.445 12.2266 81 12.2266C78.555 12.2266 76.395 12.933 74.64 13.8568C73.02 14.7262 72 16.6824 72 18.8198V21.7361H90V18.8198C90 16.6824 88.98 14.7262 87.36 13.8568Z" fill="white"/>
<path d="M64.83 15.5418C63.72 16.1214 63 17.4256 63 18.8927V21.7365H69.75V18.8203C69.75 17.3169 70.095 15.9041 70.695 14.6723C70.14 14.5637 69.585 14.4912 69 14.4912C67.515 14.4912 66.105 14.8716 64.83 15.5418Z" fill="white"/>
<path d="M97.1697 15.5418C95.8947 14.8716 94.4847 14.4912 92.9997 14.4912C92.4147 14.4912 91.8597 14.5637 91.3047 14.6723C91.9047 15.9041 92.2497 17.3169 92.2497 18.8203V21.7365H98.9997V18.8927C98.9997 17.4256 98.2797 16.1214 97.1697 15.5418Z" fill="white"/>
<path d="M96.0003 9.05665V8.15099C96.0003 6.15852 94.6503 4.52832 93.0003 4.52832H90.0003C89.3703 4.52832 89.0253 5.39776 89.4153 5.9955L90.4653 7.13664C90.1803 7.69815 90.0003 8.35023 90.0003 9.05665C90.0003 11.0491 91.3503 12.6793 93.0003 12.6793C94.6503 12.6793 96.0003 11.0491 96.0003 9.05665Z" fill="white"/>
<path fill-rule="evenodd" clip-rule="evenodd" d="M49 0C52.1077 0 55.1234 0.393777 58 1.13416V4.2422C55.139 3.433 52.1201 3 49 3C45.8799 3 42.861 3.433 40 4.24219V1.13416C42.8766 0.393777 45.8923 0 49 0ZM82 36C82 32.514 81.4595 29.1543 80.4577 26H83.5929C84.5091 29.1749 85 32.5301 85 36C85 48.908 78.2066 60.2293 68 66.5835V62.9848C76.4687 57.0111 82 47.1515 82 36ZM30 62.9848C21.5313 57.0111 16 47.1515 16 36C16 32.514 16.5405 29.1543 17.5423 26H14.4071C13.4909 29.1749 13 32.5301 13 36C13 48.908 19.7934 60.2293 30 66.5835V62.9848Z" fill="white"/>
<path d="M46.4052 63.868H51.5952C52.9902 63.868 54.0402 62.3646 53.8152 60.6982L53.3652 57.4559C53.0052 54.8838 51.1602 53 49.0002 53C46.8402 53 44.9952 54.8838 44.6352 57.474L44.1852 60.7163C43.9602 62.3646 45.0102 63.868 46.4052 63.868Z" fill="white"/>
<path d="M33.4898 62.2558C33.2948 62.7267 33.2198 63.2883 33.3398 63.8498C33.5798 65.0996 34.4798 65.7154 35.6348 65.6611C35.6348 65.6611 37.8698 65.6611 38.5598 65.6611C39.8048 65.6611 40.8248 64.6105 40.8248 63.3245C40.8248 63.0709 40.7798 62.8354 40.7198 62.6C40.7048 62.5456 40.7048 62.5094 40.7348 62.4551C40.8698 62.1652 40.9448 61.8392 40.9448 61.495C40.9448 60.9335 40.7348 60.4082 40.4048 60.0098C40.3598 59.9554 40.3598 59.9011 40.3748 59.8286C40.4798 59.4664 40.4798 59.0497 40.3898 58.6513C40.1498 57.8724 39.5648 57.3471 38.9048 57.3109C38.8598 57.3109 38.8298 57.2928 38.7998 57.2565C38.5448 56.8761 38.0798 56.6226 37.5548 56.6226C37.1048 56.6226 36.6998 56.8037 36.4298 57.0935C36.3848 57.1478 36.3398 57.1478 36.2948 57.1297C36.0848 57.0211 35.8448 56.9667 35.6048 56.9667C34.6298 56.9667 33.8348 57.8543 33.7448 58.9954C33.7448 59.0316 33.7298 59.0679 33.6998 59.1041C33.2648 59.575 33.0098 60.2815 33.0848 61.006C33.1298 61.4045 33.2648 61.7849 33.4598 62.0928C33.5048 62.129 33.5048 62.2015 33.4898 62.2558Z" fill="white"/>
<path d="M55.36 66.8568C53.605 65.9149 51.445 65.2266 49 65.2266C46.555 65.2266 44.395 65.933 42.64 66.8568C41.02 67.7262 40 69.6824 40 71.8198V74.7361H58V71.8198C58 69.6824 56.98 67.7262 55.36 66.8568Z" fill="white"/>
<path d="M32.83 68.5418C31.72 69.1214 31 70.4256 31 71.8927V74.7365H37.75V71.8203C37.75 70.3169 38.095 68.9041 38.695 67.6723C38.14 67.5637 37.585 67.4912 37 67.4912C35.515 67.4912 34.105 67.8716 32.83 68.5418Z" fill="white"/>
<path d="M65.1697 68.5418C63.8947 67.8716 62.4847 67.4912 60.9997 67.4912C60.4147 67.4912 59.8597 67.5637 59.3047 67.6723C59.9047 68.9041 60.2497 70.3169 60.2497 71.8203V74.7365H66.9997V71.8927C66.9997 70.4256 66.2797 69.1214 65.1697 68.5418Z" fill="white"/>
<path d="M64.0003 62.0567V61.151C64.0003 59.1585 62.6503 57.5283 61.0003 57.5283H58.0003C57.3703 57.5283 57.0253 58.3978 57.4153 58.9955L58.4653 60.1366C58.1803 60.6982 58.0003 61.3502 58.0003 62.0567C58.0003 64.0491 59.3503 65.6793 61.0003 65.6793C62.6503 65.6793 64.0003 64.0491 64.0003 62.0567Z" fill="white"/>
</svg>
