<svg width="99" height="90" viewBox="0 0 99 90" fill="none" xmlns="http://www.w3.org/2000/svg">
<rect x="1" y="1" width="83.2594" height="26.1955" stroke="#050721" stroke-width="2"/>
<rect x="1" y="27.8267" width="83.2594" height="26.1955" stroke="#050721" stroke-width="2"/>
<rect x="1" y="54.3799" width="83.2594" height="26.1955" stroke="#050721" stroke-width="2"/>
<rect x="12.1514" y="8.93945" width="8" height="8" rx="4" fill="#D9D9D9" stroke="#050721" stroke-width="2"/>
<rect x="12.1514" y="35.7656" width="8" height="8" rx="4" fill="#D9D9D9" stroke="#050721" stroke-width="2"/>
<rect x="12.1514" y="62.3184" width="8" height="8" rx="4" fill="#D9D9D9" stroke="#050721" stroke-width="2"/>
<rect x="25.7871" y="10.4023" width="54.3615" height="7.39106" rx="3.69553" fill="#050721"/>
<rect x="25.7871" y="37.229" width="54.3615" height="7.39106" rx="3.69553" fill="#050721"/>
<rect x="25.7871" y="63.7822" width="54.3615" height="7.39106" rx="3.69553" fill="#050721"/>
<path d="M71.2069 30.7945C63.2698 36.2315 57.9345 38.834 48.6328 41.3174C47.845 41.5277 47.4511 41.6329 47.2421 41.9322C47.033 42.2315 47.0689 42.6288 47.1409 43.4234C48.8939 62.7813 54.5145 72.9816 71.1146 87.8934C71.7061 88.4247 72.0019 88.6904 72.367 88.7019C72.7321 88.7133 73.0433 88.4673 73.6656 87.9751C90.4103 74.7334 96.3803 64.7652 97.894 43.3807C97.949 42.6029 97.9765 42.214 97.7699 41.9222C97.5633 41.6304 97.1814 41.5255 96.4174 41.3158C87.0002 38.7304 81.5432 36.2878 73.5067 30.7944C72.9457 30.4109 72.6652 30.2192 72.3558 30.2194C72.0464 30.2195 71.7666 30.4112 71.2069 30.7945Z" fill="#DBEAFD" stroke="#050721"/>
<path d="M71.328 38.3832C65.1395 42.5552 61.1138 44.4793 53.8232 46.3501C53.3493 46.4717 53.028 46.9205 53.0711 47.4078C54.3482 61.8782 58.5581 69.3516 71.2765 80.464C71.6322 80.7748 72.1678 80.7923 72.5423 80.5045C85.3659 70.652 89.8527 63.3604 90.9468 47.3861C90.9794 46.9089 90.6651 46.4716 90.2028 46.349C82.8348 44.3957 78.7165 42.5986 72.4585 38.3833C72.1173 38.1535 71.6691 38.1532 71.328 38.3832Z" stroke="#050721"/>
<path d="M64 59.28L69.1484 64.3134C69.5383 64.6946 70.1616 64.6932 70.5498 64.3102L81 54" stroke="#050721" stroke-width="2" stroke-linecap="round"/>
</svg>
