<svg width="150" height="150" viewBox="0 0 150 150" fill="none" xmlns="http://www.w3.org/2000/svg">
<path d="M125.15 75.196C125.15 103.508 102.435 126.446 74.4296 126.446C46.4246 126.446 23.709 103.508 23.709 75.196C23.709 46.884 46.4246 23.9458 74.4296 23.9458C102.435 23.9458 125.15 46.884 125.15 75.196Z" fill="#744C01" stroke="white" stroke-width="1.5"/>
<path d="M75.0368 18.5653L74.9988 18.5634L74.9608 18.5653C61.8359 19.243 55.5437 22.1386 50.7872 25.2947C50.9395 22.3698 51.5522 19.4906 52.6019 16.7797C53.8245 13.6223 55.6153 10.7566 57.8697 8.345C60.1241 5.93349 62.7976 4.02348 65.7363 2.72139C68.6747 1.41937 71.8222 0.75 74.9995 0.75C78.1768 0.75 81.3243 1.41937 84.2628 2.72139C87.2014 4.02348 89.875 5.93349 92.1293 8.345C94.3837 10.7566 96.1745 13.6223 97.3971 16.7797C98.4468 19.4905 99.0595 22.3696 99.2118 25.2943C96.7944 23.6742 94.2987 22.2481 90.9879 21.1229C87.1293 19.8116 82.2016 18.9215 75.0368 18.5653Z" fill="#000EC6" stroke="white" stroke-width="1.5"/>
<rect x="65.4556" y="0.75" width="19.0882" height="19.3001" rx="9.54412" fill="#050721" stroke="white" stroke-width="1.5"/>
<path d="M18.3685 74.1867L18.3667 74.2239L18.3686 74.2611C19.04 87.5332 21.911 93.8864 25.0385 98.6925C22.1458 98.5387 19.298 97.9202 16.6164 96.8604C13.4933 95.626 10.6577 93.8177 8.2708 91.5402C5.88398 89.2628 3.99262 86.561 2.70292 83.5901C1.41327 80.6193 0.75 77.4366 0.75 74.2232C0.75 71.0099 1.41327 67.8272 2.70292 64.8564C3.99262 61.8855 5.88398 59.1837 8.2708 56.9063C10.6577 54.6288 13.4932 52.8205 16.6164 51.5861C19.298 50.5263 22.1456 49.9078 25.0382 49.7541C23.43 52.2016 22.0149 54.726 20.8991 58.0772C19.6019 61.9732 18.7211 66.9496 18.3685 74.1867Z" fill="#DB02D8" stroke="white" stroke-width="1.5"/>
<rect x="0.75" y="83.8726" width="19.3001" height="19.0882" rx="9.54412" transform="rotate(-90 0.75 83.8726)" fill="#050721" stroke="white" stroke-width="1.5"/>
<path d="M131.631 74.2644L131.633 74.2272L131.631 74.19C130.96 60.9179 128.089 54.5647 124.961 49.7587C127.854 49.9124 130.702 50.5309 133.384 51.5908C136.507 52.8251 139.342 54.6335 141.729 56.911C144.116 59.1884 146.007 61.8902 147.297 64.8611C148.587 67.8319 149.25 71.0146 149.25 74.2279C149.25 77.4412 148.587 80.624 147.297 83.5948C146.007 86.5657 144.116 89.2674 141.729 91.5449C139.342 93.8223 136.507 95.6307 133.384 96.8651C130.702 97.9249 127.854 98.5434 124.962 98.6971C126.57 96.2496 127.985 93.7252 129.101 90.374C130.398 86.4779 131.279 81.5016 131.631 74.2644Z" fill="#009B36" stroke="white" stroke-width="1.5"/>
<rect x="149.25" y="64.5786" width="19.3001" height="19.0882" rx="9.54412" transform="rotate(90 149.25 64.5786)" fill="#050721" stroke="white" stroke-width="1.5"/>
<path d="M75.0858 131.435L75.1238 131.437L75.1617 131.435C88.2867 130.757 94.5789 127.862 99.3354 124.706C99.1831 127.631 98.5704 130.51 97.5206 133.221C96.2981 136.378 94.5073 139.244 92.2528 141.655C89.9985 144.067 87.325 145.977 84.3863 147.279C81.4478 148.581 78.3003 149.25 75.123 149.25C71.9458 149.25 68.7983 148.581 65.8598 147.279C62.9211 145.977 60.2476 144.067 57.9933 141.655C55.7388 139.244 53.948 136.378 52.7255 133.221C51.6758 130.51 51.0631 127.631 50.9107 124.706C53.3281 126.326 55.8238 127.752 59.1346 128.878C62.9932 130.189 67.921 131.079 75.0858 131.435Z" fill="#E6E600" stroke="white" stroke-width="1.5"/>
<rect x="84.5439" y="149.25" width="19.0882" height="19.3001" rx="9.54412" transform="rotate(-180 84.5439 149.25)" fill="#050721" stroke="white" stroke-width="1.5"/>
<rect x="0.616856" y="0.865009" width="24.9781" height="31.1768" transform="matrix(0.98599 0.166804 -0.163515 0.986541 60.5949 59.2877)" fill="#979797" stroke="white" stroke-width="1.5"/>
<rect x="0.58389" y="0.888052" width="24.9818" height="31.1723" transform="matrix(0.978898 0.20435 -0.200377 0.979719 64.2391 57.114)" fill="#9E9E9E" stroke="white" stroke-width="1.5"/>
<rect x="0.525963" y="0.924254" width="24.9898" height="31.1626" transform="matrix(0.963598 0.267356 -0.262314 0.964983 69.392 54.0148)" fill="#FCFCFC" stroke="white" stroke-width="1.5"/>
<line y1="-0.25" x2="18.3801" y2="-0.25" transform="matrix(0.965199 0.261517 -0.25657 0.966526 69.8916 57.2129)" stroke="#D4D4D4" stroke-width="0.5"/>
<line y1="-0.25" x2="18.3801" y2="-0.25" transform="matrix(0.965199 0.261517 -0.25657 0.966526 69.4951 58.7085)" stroke="#D4D4D4" stroke-width="0.5"/>
<line y1="-0.25" x2="18.3801" y2="-0.25" transform="matrix(0.965199 0.261517 -0.25657 0.966526 69.0986 60.1997)" stroke="#D4D4D4" stroke-width="0.5"/>
<line y1="-0.25" x2="24.5068" y2="-0.25" transform="matrix(0.965199 0.261517 -0.25657 0.966526 68.7021 61.6953)" stroke="#D4D4D4" stroke-width="0.5"/>
<line y1="-0.25" x2="24.5068" y2="-0.25" transform="matrix(0.965199 0.261517 -0.25657 0.966526 65.5303 73.6426)" stroke="#D4D4D4" stroke-width="0.5"/>
<line y1="-0.25" x2="24.5068" y2="-0.25" transform="matrix(0.965199 0.261517 -0.25657 0.966526 68.3057 63.188)" stroke="#D4D4D4" stroke-width="0.5"/>
<line y1="-0.25" x2="24.5068" y2="-0.25" transform="matrix(0.965199 0.261517 -0.25657 0.966526 65.1338 75.1353)" stroke="#D4D4D4" stroke-width="0.5"/>
<line y1="-0.25" x2="24.5068" y2="-0.25" transform="matrix(0.965199 0.261517 -0.25657 0.966526 67.9092 64.6821)" stroke="#D4D4D4" stroke-width="0.5"/>
<line y1="-0.25" x2="24.5068" y2="-0.25" transform="matrix(0.965199 0.261517 -0.25657 0.966526 64.7373 76.6309)" stroke="#D4D4D4" stroke-width="0.5"/>
<line y1="-0.25" x2="24.5068" y2="-0.25" transform="matrix(0.965199 0.261517 -0.25657 0.966526 67.5127 66.1733)" stroke="#D4D4D4" stroke-width="0.5"/>
<line y1="-0.25" x2="24.5068" y2="-0.25" transform="matrix(0.965199 0.261517 -0.25657 0.966526 64.3408 78.1235)" stroke="#D4D4D4" stroke-width="0.5"/>
<line y1="-0.25" x2="24.5068" y2="-0.25" transform="matrix(0.965199 0.261517 -0.25657 0.966526 67.1162 67.6704)" stroke="#D4D4D4" stroke-width="0.5"/>
<line y1="-0.25" x2="24.5068" y2="-0.25" transform="matrix(0.965199 0.261517 -0.25657 0.966526 63.9443 79.6177)" stroke="#D4D4D4" stroke-width="0.5"/>
<line y1="-0.25" x2="24.5068" y2="-0.25" transform="matrix(0.965199 0.261517 -0.25657 0.966526 66.7197 69.1602)" stroke="#D4D4D4" stroke-width="0.5"/>
<line y1="-0.25" x2="24.5068" y2="-0.25" transform="matrix(0.965199 0.261517 -0.25657 0.966526 63.5479 81.1089)" stroke="#D4D4D4" stroke-width="0.5"/>
<line y1="-0.25" x2="24.5068" y2="-0.25" transform="matrix(0.965199 0.261517 -0.25657 0.966526 66.3232 70.6558)" stroke="#D4D4D4" stroke-width="0.5"/>
<line y1="-0.25" x2="24.5068" y2="-0.25" transform="matrix(0.965199 0.261517 -0.25657 0.966526 63.1514 82.603)" stroke="#D4D4D4" stroke-width="0.5"/>
<line y1="-0.25" x2="24.5068" y2="-0.25" transform="matrix(0.965199 0.261517 -0.25657 0.966526 65.9268 72.1484)" stroke="#D4D4D4" stroke-width="0.5"/>
<line y1="-0.25" x2="24.5068" y2="-0.25" transform="matrix(0.965199 0.261517 -0.25657 0.966526 62.7549 84.0957)" stroke="#D4D4D4" stroke-width="0.5"/>
</svg>
